<?xml version="1.0" standalone="no"?>
<!DOCTYPE svg PUBLIC "-//W3C//DTD SVG 1.1//EN" "http://www.w3.org/Graphics/SVG/1.1/DTD/svg11.dtd" >
<svg xmlns="http://www.w3.org/2000/svg" xmlns:xlink="http://www.w3.org/1999/xlink" version="1.1">
<metadata></metadata>
<defs>
<font id="blockletter_3dregular" horiz-adv-x="1109" >
<font-face units-per-em="2048" ascent="1638" descent="-410" />
<missing-glyph horiz-adv-x="500" />
<glyph horiz-adv-x="0" />
<glyph unicode="!" horiz-adv-x="511" d="M31 1463v-1046h268v1046h-268zM30 62h267v268h-267v-268zM329 1493v-6l32 -32v-1100h-34v-1l32 -32v-322h-321l-32 32h-6v328h34l-27 27h-6v1106h328z" />
<glyph unicode="&#x22;" horiz-adv-x="896" d="M684 907v556h-267v-556h267zM297 907v556h-267v-556h267zM6 877h-6v616h327v-6l32 -32v-610h-321zM393 877h-6v616h327v-6l32 -32v-610h-321z" />
<glyph unicode="#" horiz-adv-x="1334" d="M696 878l-36 -233h-199l36 233h199zM30 645v-267h110l-50 -316h279l50 316h199l-50 -316h279l50 316h145v267h-103l36 233h147v267h-105l50 316h-279l-50 -316h-199l50 316h-279l-50 -316h-150v-267h108l-36 -233h-152zM157 675q2 13 5 33l2 16l2 15q2 16 5 38l3 19l3 20 h-59l-32 32h-6v327h153q3 15 10 60l3 17l2 16q3 18 5 27q13 78 31 196h340l-1 -5l33 -33l-46 -278h101q3 15 10 60l3 17l2 16q3 18 5 27q13 78 31 196h340l-1 -5l33 -33l-46 -278h64v-6l32 -32v-321h-151q-10 -67 -22 -141h61v-6l32 -32v-321h-148q-5 -32 -13 -78l-13 -81 q-16 -101 -25 -157h-334l-32 32h-6l45 284h-100q-5 -32 -13 -78l-13 -81q-16 -101 -25 -157h-334l-32 32h-6l45 284h-62l-32 32h-6v327h157zM555 816q-10 -67 -22 -141h102q2 13 5 33l2 16l2 15q2 16 5 38l3 19l3 20h-100z" />
<glyph unicode="$" d="M329 62h269v90h94l205 205v371l-73 71l1 1l-138 135h-389v248h332v-159h267v221l-205 206h-94v73h-269v-73h-94l-205 -206v-373l200 -204h400v-248h-332v159h-268v-222l205 -205h94v-90zM299 90h-40l-32 32h-4l-223 223v264h251l-29 29h-4l-218 222v397l223 224h76v73 h329v-6l32 -32v-35h44l223 -224v-4l32 -32v-259h-257l143 -142q5 -5 20 -19l11 -11l10 -10l11 -11l10 -10q12 -12 20 -19v-4l32 -32v-393l-221 -221h-78v-90h-323l-32 32h-6v58zM360 450h240v156h-272v-3l32 -32v-121zM360 965h275l-29 29h-6v127h-240v-156z" />
<glyph unicode="%" horiz-adv-x="2095" d="M235 1399l-205 -206v-316l205 -205h287l205 205v316l-205 206h-287zM510 890h-262v291h262v-291zM534 1429l255 -260v-338l-221 -221h-309l-36 32l-223 223v340l223 224h311zM480 1119h-170v-199h170v199zM1199 1461l-220 -1399h-279l220 1399h279zM671 32l32 -32h334 l229 1453l-33 33l1 5h-340l-229 -1459h6zM1391 867l-205 -206v-316l205 -205h287l205 205v316l-205 206h-287zM1690 897l255 -260v-338l-221 -221h-309l-36 32l-223 223v340l223 224h311zM1668 356h-262v291h262v-291zM1638 585h-170v-199h170v199z" />
<glyph unicode="&#x26;" horiz-adv-x="1152" d="M630 560v-230h-332v298h243v267h-243v298h332v-209h267v271l-205 206h-457l-205 -206v-423l73 -73l-73 -71v-421l205 -205h457l205 205v231h43v267h-105zM227 32h-4l-223 223v445l61 60l-30 30l-15 15l-16 15v447l223 224h481l223 -224v-4l32 -32v-309h-321l-32 32h-6 v177h-240v-206h211v-6l32 -32v-312l220 220h147v-6l32 -32v-321h-43v-215l-221 -221h-479zM360 360h240v206h-240v-206z" />
<glyph unicode="'" horiz-adv-x="509" d="M297 843v556h-267v-556h267zM6 813h-6v616h327v-6l32 -32v-610h-321z" />
<glyph unicode="(" horiz-adv-x="600" d="M235 1461l-205 -206v-988l205 -205h153v268h-90v863h90v268h-153zM418 1491v-6l32 -32v-322h-90v-771h58v-6l32 -32v-322h-191l-32 32h-4l-223 223v1012l223 224h195z" />
<glyph unicode=")" horiz-adv-x="600" d="M30 1461v-268h90v-863h-90v-268h152l206 205v988l-206 206h-152zM194 1491l224 -224v-4l32 -32v-1010l-222 -221h-190l-32 32h-6v328h90v771h-52l-32 32h-6v328h194z" />
<glyph unicode="*" horiz-adv-x="638" d="M62 1375l77 -77h-109v-74h109l-77 -77l52 -52l77 77v-109h73v110l78 -78l51 51l-77 78h110v74h-108l76 77l-52 52l-78 -77v109h-73v-110l-78 77zM113 1468l48 -48v69h133v-6l31 -31l17 17l94 -94l-2 -2l33 -33l-12 -12h1v-6l32 -32v-128h-69l16 -16l-2 -2l33 -33l-89 -89 l-33 33l-2 -2l-16 16v-68h-127l-32 32h-6v1l-12 -12l-33 33l-2 -2l-94 94l16 16l-30 31h-6v134h67l-47 47z" />
<glyph unicode="+" horiz-adv-x="908" d="M230 367h267v199h199v267h-199v200h-267v-200h-200v-267h200v-199zM200 504h-162l-32 32h-6v327h200v200h327v-6l32 -32v-162h167v-6l32 -32v-321h-199v-199h-321l-32 32h-6v167z" />
<glyph unicode="," horiz-adv-x="510" d="M30 62h125l-60 -140h141l61 140h1v268h-268v-268zM0 360h328l32 -38l-1 -301l-70 -161h-201l-40 32l47 108h-57l-38 32v328z" />
<glyph unicode="-" horiz-adv-x="913" d="M30 864h671v-268h-671v268zM0 566h6l32 -32h725v322l-32 32v6h-731v-328z" />
<glyph unicode="." horiz-adv-x="510" d="M30 62h268v268h-268v-268zM0 360h328l32 -38v-322h-322l-38 32v328z" />
<glyph unicode="/" horiz-adv-x="751" d="M35 62h279l220 1399h-279zM229 1491h340l-1 -5l33 -33l-229 -1453h-334l-32 32h-6z" />
<glyph unicode="0" d="M235 1461l-205 -206v-988l205 -205h457l205 205v988l-205 206h-457zM630 330h-332v863h332v-863zM704 1491l255 -260v-1010l-221 -221h-479l-36 32l-223 223v1012l223 224h481zM600 1131h-240v-771h240v771z" />
<glyph unicode="1" horiz-adv-x="510" d="M30 62h268v1399h-268v-1399zM0 1491h328l32 -38v-1453h-322l-38 32v1459z" />
<glyph unicode="2" d="M235 1461l-205 -206v-271h268v209h332v-298h-395l-205 -205v-628h867v477h-267v-209h-332v298h391l208 211v416l-205 206h-457zM704 1491l255 -260v-438l-221 -224h189l32 -38v-531h-921l-38 32v670l220 220h-182l-38 32v313l223 224h481zM360 925h240v206h-240v-206z M360 360h240v206h-240v-206z" />
<glyph unicode="3" d="M235 1461l-205 -206v-271h268v209h332v-298h-244v-267h244v-298h-332v209h-268v-272l205 -205h457l205 205v421l-73 71l73 73v423l-205 206h-457zM704 1491l255 -260v-445l-60 -60l60 -62v-443l-221 -221h-479l-36 32l-223 223v314h328l32 -38v-171h240v206h-206l-38 32 v324h-318l-38 32v313l223 224h481zM360 925h240v206h-240v-206z" />
<glyph unicode="4" horiz-adv-x="1055" d="M575 895h-277v566h-268v-833h545v-566h268v1399h-268v-566zM545 1491h328l32 -38v-1453h-322l-38 32v534h-507l-38 32v893h328l32 -38v-528h185v566z" />
<glyph unicode="5" d="M30 628h599v-298h-331v209h-268v-272l205 -205h457l205 205v427h-1l-204 204h-394v295h599v268h-867v-833zM0 1491h927l32 -38v-322h-599v-203h344l255 -258v-449l-221 -221h-479l-259 255v314h35l-35 29v893zM360 360h239v206h-271v-3l32 -32v-171z" />
<glyph unicode="6" d="M235 1461l-205 -206v-988l205 -205h457l205 205v426l-205 205h-394v295h332v-209h267v271l-205 206h-457zM630 628v-298h-332v298h332zM704 1491l255 -260v-309h-249l249 -243v-458l-221 -221h-479l-32 32h-4l-223 223v1012l223 224h481zM360 360h240v206h-240v-206z M360 928h272l-32 26v177h-240v-203z" />
<glyph unicode="7" horiz-adv-x="1013" d="M30 1461v-268h429l-252 -1131h278l310 1399h-765zM832 1491l-2 -6l33 -32l-322 -1453h-332l-39 32l245 1099h-377l-38 32v328h832z" />
<glyph unicode="8" d="M235 1461l-205 -206v-425l68 -69l-68 -68v-426l205 -205h457l205 205v426l-68 68l68 69v425l-205 206h-457zM630 1193v-298h-332v298h332zM630 330h-332v298h332v-298zM704 1491l223 -224v-4l32 -32v-448l-55 -55l55 -59v-448l-221 -221h-479l-36 32l-223 223v450l56 56 l-56 56v450l223 224h481zM360 925h240v206h-240v-206zM600 566h-240v-206h240v206z" />
<glyph unicode="9" d="M692 62l205 205v988l-205 206h-457l-205 -206v-425l205 -205h395v-295h-332v209h-268v-272l205 -205h457zM298 895v298h332v-298h-332zM227 32h-4l-223 223v314h253l-26 26h-4l-223 223v449l223 224h481l223 -224v-4l32 -32v-1010l-221 -221h-479zM360 925h240v206h-240 v-206zM360 360h240v203h-272l32 -32v-171z" />
<glyph unicode=":" horiz-adv-x="510" d="M30 1193h268v268h-268v-268zM30 62h268v268h-268v-268zM0 360h328l32 -38v-322h-322l-38 32v328zM0 1491h328l32 -38v-322h-322l-38 32v328z" />
<glyph unicode=";" horiz-adv-x="537" d="M57 35h125l-60 -140h141l61 140h1v268h-268v-268zM27 333h328l32 -38l-1 -301l-70 -161h-201l-32 32h-8l47 108h-57l-38 32v328zM30 1461h268v-268h-268v268zM0 1163l38 -32h322v322l-32 38h-328v-328z" />
<glyph unicode="&#x3c;" horiz-adv-x="1016" d="M804 508l-566 198l566 187v268l-774 -256v-393l774 -272v268zM834 524l32 -32v-325l-828 291l-30 30l-8 3v436l834 276v-7l32 -32v-326l-471 -155l73 -26l73 -25q59 -20 148 -52l73 -26l72 -25v-5z" />
<glyph unicode="=" horiz-adv-x="918" d="M30 736h676v267h-676v-267zM30 396h676v267h-676v-267zM0 1033h736v-6l32 -32v-321h-19l19 -19v-321h-730l-32 32h-6v327h19l-13 13h-6v327z" />
<glyph unicode="&#x3e;" horiz-adv-x="1016" d="M30 240l774 272v393l-774 256v-268l566 -187l-566 -198v-268zM0 529l473 165l-110 36l-110 36q-126 42 -215 72l-30 30l-4 2l-4 1v332l834 -276v-5l32 -32v-432l-828 -291l-33 33l-5 -2v331z" />
<glyph unicode="?" d="M235 1461l-205 -206v-271h268v209h331v-298h-149l-206 -205v-273h268v211h147l208 211v416l-205 206h-457zM273 62h267v268h-267v-268zM243 360h34l-27 27h-6v315l224 223h131v206h-239v-209h-322l-32 32h-6v313l223 224h481l223 -224v-4l32 -32v-438l-224 -227h-131 v-211h-34v-1l32 -32v-322h-321l-32 32h-6v328z" />
<glyph unicode="@" horiz-adv-x="1117" d="M726 241h-221v577h221v-577zM905 1323l-137 137h-601l-137 -137v-1260h179v1219h517v-286h-263l-137 -137v-660l137 -137h305l137 137v1124zM935 1331l32 -32v-1146l-153 -153h-327l-32 32h-4l-155 155v684l155 155h245v194h-425v-1219h-233l-32 32h-6v1302l155 155h625 l155 -155v-4zM696 756h-129v-485h129v485z" />
<glyph unicode="A" horiz-adv-x="1259" d="M371 300h340l61 -238h267l-355 1399h-268l-377 -1399h268zM643 568h-200l103 382zM0 32l393 1459h314l33 -38l369 -1453h-323l-37 32l-54 206h-268l-64 -238h-324zM565 752l-42 -154h82z" />
<glyph unicode="B" d="M30 1461v-1399h662l205 205v421l-73 71l73 73v423l-205 206h-662zM630 330h-332v298h332v-298zM298 1193h331v-298h-331v298zM704 1491l255 -260v-445l-60 -60l60 -62v-443l-221 -221h-700l-38 32v1459h704zM600 566h-240v-206h240v206zM360 925h239v206h-239v-206z" />
<glyph unicode="C" d="M235 1461l-205 -206v-988l205 -205h457l205 205v272h-267v-209h-332v863h332v-209h267v271l-205 206h-457zM704 1491l255 -260v-309h-321l-38 32v177h-240v-771h240v209h327l32 -38v-310l-221 -221h-479l-36 32l-223 223v1012l223 224h481z" />
<glyph unicode="D" d="M30 1461v-1399h662l205 205v988l-205 206h-662zM630 330h-332v863h332v-863zM704 1491l255 -260v-1010l-221 -221h-700l-38 32v1459h704zM600 1131h-240v-771h240v771z" />
<glyph unicode="E" horiz-adv-x="953" d="M30 1461v-1399h711v268h-443v298h354v267h-354v298h443v268h-711zM771 1491l32 -38v-322h-443v-206h322l32 -38v-321h-354v-206h411l32 -38v-322h-765l-38 32v1459h771z" />
<glyph unicode="F" horiz-adv-x="953" d="M30 1461v-1399h268v566h354v267h-354v298h443v268h-711zM771 1491l32 -38v-322h-443v-206h322l32 -38v-321h-354v-566h-322l-38 32v1459h771z" />
<glyph unicode="G" d="M235 1461l-205 -206v-988l205 -205h457l205 205v628h-421v-267h154v-298h-332v863h332v-209h267v271l-205 206h-457zM704 1491l255 -260v-309h-32v-3l32 -32v-666l-221 -221h-479l-259 255v1012l223 224h481zM360 360h240v206h-116l-38 32v327h189l-35 29v177h-240v-771z " />
<glyph unicode="H" horiz-adv-x="1076" d="M596 895h-298v566h-268v-1399h268v566h298v-566h268v1399h-268v-566zM566 1491h328l32 -38v-1453h-322l-38 32v534h-206v-566h-322l-38 32v1459h328l32 -38v-528h206v566z" />
<glyph unicode="I" horiz-adv-x="510" d="M30 62h268v1399h-268v-1399zM0 1491h328l32 -38v-1453h-322l-38 32v1459z" />
<glyph unicode="J" d="M630 330h-332v209h-268v-272l205 -205h457l205 205v1194h-267v-1131zM600 1491h327l32 -38v-1232l-221 -221h-479l-259 255v314h328l32 -38v-171h240v1131z" />
<glyph unicode="K" horiz-adv-x="1161" d="M631 1461l-333 -582v582h-268v-1399h268v581l333 -581h299l-401 699l401 700h-299zM981 1491l30 -38l-417 -727q374 -650 417 -726h-360l-37 32l-254 445v-477h-322l-38 32v1459h328l32 -38l-1 -403l255 441h367z" />
<glyph unicode="L" horiz-adv-x="952" d="M298 1461h-268v-1399h710v268h-442v1131zM360 1453v-1093h410l32 -38v-322h-764l-38 32v1459h328z" />
<glyph unicode="M" horiz-adv-x="1272" d="M545 777l-225 684h-290v-1399h268v567l132 -567h230l132 567v-567h268v1399h-290zM0 32v1459h342l33 -38l180 -548l193 586h342l32 -38v-1453h-322l-38 32v165l-46 -197h-272l-38 32l-46 199v-231h-322z" />
<glyph unicode="N" horiz-adv-x="1165" d="M685 664l-354 797h-301v-1399h268v797l354 -797h301v1399h-268v-797zM0 32v1459h351l33 -38l271 -611v649l328 -6l32 -32v-1453h-346l-37 32l-272 614v-646h-322z" />
<glyph unicode="O" d="M235 1461l-205 -206v-988l205 -205h457l205 205v988l-205 206h-457zM630 330h-332v863h332v-863zM704 1491l223 -224v-4l32 -32v-1010l-221 -221h-479l-32 32h-4l-223 223v1012l223 224h481zM600 1131h-240v-771h240v771z" />
<glyph unicode="P" d="M30 1461v-1399h268v532h394l205 205v456l-205 206h-662zM629 861h-331v332h331v-332zM704 1491l223 -224v-4l32 -32v-478l-221 -221h-378v-532h-322l-38 32v1459h704zM599 1131h-239v-240h239v240z" />
<glyph unicode="Q" horiz-adv-x="1121" d="M235 1460l-205 -205v-988l205 -206h287l182 -187l193 185l-102 106l102 102v988l-205 205h-457zM523 446l-121 -117h-104v864h332v-857zM704 1490l223 -223v-4l32 -32v-1010l-90 -90q97 -103 102 -108l-232 -222l-33 33l-2 -2l-163 167h-282l-32 32h-4l-223 224v1012 l223 223h481zM600 410v721h-240v-772h30l134 129z" />
<glyph unicode="R" d="M30 1461v-1399h268v532h332v-532h267v626l-73 71l73 73v423l-205 206h-662zM630 861h-332v332h332v-332zM704 1491l223 -224v-4l32 -32v-445l-60 -60l15 -14q9 -8 13 -12v-4l32 -32v-664h-321l-32 32h-6v500h-240v-532h-322l-32 32h-6v1459h704zM600 1131h-240v-240h240 v240z" />
<glyph unicode="S" d="M235 1461l-205 -206v-423l200 -204h400v-298h-332v209h-268v-272l205 -205h457l205 205v421l-210 207h-389v298h332v-209h267v271l-205 206h-457zM704 1491l223 -224v-4l32 -32v-309h-257l225 -226l32 -32v-443l-221 -221h-479l-32 32h-4l-223 223v314h251l-251 251v447 l223 224h481zM360 360h240v206h-272l32 -35v-171zM360 925h275l-35 29v177h-240v-206z" />
<glyph unicode="T" horiz-adv-x="1027" d="M30 1461v-268h258v-1131h268v1131h259v268h-785zM845 1491l32 -38v-322h-259v-1131h-322l-38 32v1099h-220l-38 32v328h845z" />
<glyph unicode="U" d="M629 330h-331v1131h-268v-1194l205 -205h457l205 205v1194h-268v-1131zM599 1491h328l32 -38v-1232l-221 -221h-479l-259 255v1236h328l32 -38v-1093h239v1131z" />
<glyph unicode="V" horiz-adv-x="1259" d="M532 573l-225 888h-268l355 -1399h268l377 1399h-267zM371 32l-371 1459h330l33 -38l181 -718l205 756h329l31 -38l-391 -1453h-310z" />
<glyph unicode="W" horiz-adv-x="1679" d="M1058 706l-185 755h-249l-185 -755l-128 755h-276l229 -1399h315l170 747l168 -747h316l229 1399h-276zM369 1453l90 -532l141 570h297l32 -38l132 -539l100 577h336l32 -38l-238 -1453h-360l-38 32l-125 552l-133 -584h-359l-38 32l-238 1459h336z" />
<glyph unicode="X" horiz-adv-x="1165" d="M939 1461h-293l-153 -357l-153 357h-294l300 -700l-300 -699h293l154 357l153 -357h293l-300 699zM1015 1453l-311 -727q253 -590 311 -726h-352l-37 32l-110 255l-124 -287h-352l-40 32l313 729l-313 730h360l33 -38l108 -252l125 290h359z" />
<glyph unicode="Y" horiz-adv-x="1259" d="M532 887l-223 574h-265l351 -900v-499h267v499l372 900h-265zM365 32v523l-365 936h329l33 -38l180 -463l207 501h330l30 -38l-385 -932v-521h-321z" />
<glyph unicode="Z" horiz-adv-x="1044" d="M30 1193h457l-450 -863l-7 -16v-252h802v268h-457l450 863l7 15v253h-802v-268zM0 1491h862l32 -38v-285l-11 -25l-409 -783h388l32 -38v-322h-856l-38 32v288l11 26l409 785h-382l-38 32v328z" />
<glyph unicode="[" horiz-adv-x="612" d="M30 1461v-1399h370v268h-102v863h102v268h-370zM430 1491l32 -38v-322h-102v-771h70l32 -38v-322h-424l-38 32v1459h430z" />
<glyph unicode="\" horiz-adv-x="751" d="M314 1461h-279l220 -1399h279zM372 1453l229 -1453h-334l-38 32l-229 1459h340z" />
<glyph unicode="]" horiz-adv-x="612" d="M30 1461v-268h102v-863h-102v-268h370v1399h-370zM430 1491l32 -38v-1453h-424l-38 32v328h102v771h-64l-38 32v328h430z" />
<glyph unicode="^" horiz-adv-x="1186" d="M310 686l198 566l187 -566h268l-256 774h-393l-272 -774h268zM7 656h-7l293 834h436l2 -8l31 -30l274 -828h-326l-32 32h-5l-145 438q-32 -90 -83 -237l-41 -118q-23 -67 -40 -115h-325z" />
<glyph unicode="_" horiz-adv-x="798" d="M30 -298h556v267h-556v-267zM0 -1h616v-6l32 -32v-321h-610l-32 32h-6v327z" />
<glyph unicode="`" horiz-adv-x="734" d="M220 1583l-220 449h334l33 -38l217 -443h-327zM506 1613l-191 389h-267l191 -389h267z" />
<glyph unicode="a" horiz-adv-x="1259" d="M371 300h340l61 -238h267l-355 1399h-268l-377 -1399h268zM643 568h-200l103 382zM0 32l393 1459h314l33 -38l369 -1453h-323l-37 32l-54 206h-268l-64 -238h-324zM565 752l-42 -154h82z" />
<glyph unicode="b" d="M30 1461v-1399h662l205 205v421l-73 71l73 73v423l-205 206h-662zM630 330h-332v298h332v-298zM298 1193h331v-298h-331v298zM704 1491l255 -260v-445l-60 -60l60 -62v-443l-221 -221h-700l-38 32v1459h704zM600 566h-240v-206h240v206zM360 925h239v206h-239v-206z" />
<glyph unicode="c" d="M235 1461l-205 -206v-988l205 -205h457l205 205v272h-267v-209h-332v863h332v-209h267v271l-205 206h-457zM704 1491l255 -260v-309h-321l-38 32v177h-240v-771h240v209h327l32 -38v-310l-221 -221h-479l-36 32l-223 223v1012l223 224h481z" />
<glyph unicode="d" d="M30 1461v-1399h662l205 205v988l-205 206h-662zM630 330h-332v863h332v-863zM704 1491l255 -260v-1010l-221 -221h-700l-38 32v1459h704zM600 1131h-240v-771h240v771z" />
<glyph unicode="e" horiz-adv-x="953" d="M30 1461v-1399h711v268h-443v298h354v267h-354v298h443v268h-711zM771 1491l32 -38v-322h-443v-206h322l32 -38v-321h-354v-206h411l32 -38v-322h-765l-38 32v1459h771z" />
<glyph unicode="f" horiz-adv-x="953" d="M30 1461v-1399h268v566h354v267h-354v298h443v268h-711zM771 1491l32 -38v-322h-443v-206h322l32 -38v-321h-354v-566h-322l-38 32v1459h771z" />
<glyph unicode="g" d="M235 1461l-205 -206v-988l205 -205h457l205 205v628h-421v-267h154v-298h-332v863h332v-209h267v271l-205 206h-457zM704 1491l255 -260v-309h-32v-3l32 -32v-666l-221 -221h-479l-259 255v1012l223 224h481zM360 360h240v206h-116l-38 32v327h189l-35 29v177h-240v-771z " />
<glyph unicode="h" horiz-adv-x="1076" d="M596 895h-298v566h-268v-1399h268v566h298v-566h268v1399h-268v-566zM566 1491h328l32 -38v-1453h-322l-38 32v534h-206v-566h-322l-38 32v1459h328l32 -38v-528h206v566z" />
<glyph unicode="i" horiz-adv-x="510" d="M30 62h268v1399h-268v-1399zM0 1491h328l32 -38v-1453h-322l-38 32v1459z" />
<glyph unicode="j" d="M630 330h-332v209h-268v-272l205 -205h457l205 205v1194h-267v-1131zM600 1491h327l32 -38v-1232l-221 -221h-479l-259 255v314h328l32 -38v-171h240v1131z" />
<glyph unicode="k" horiz-adv-x="1161" d="M631 1461l-333 -582v582h-268v-1399h268v581l333 -581h299l-401 699l401 700h-299zM981 1491l30 -38l-417 -727q374 -650 417 -726h-360l-37 32l-254 445v-477h-322l-38 32v1459h328l32 -38l-1 -403l255 441h367z" />
<glyph unicode="l" horiz-adv-x="952" d="M298 1461h-268v-1399h710v268h-442v1131zM360 1453v-1093h410l32 -38v-322h-764l-38 32v1459h328z" />
<glyph unicode="m" horiz-adv-x="1272" d="M545 777l-225 684h-290v-1399h268v567l132 -567h230l132 567v-567h268v1399h-290zM0 32v1459h342l33 -38l180 -548l193 586h342l32 -38v-1453h-322l-38 32v165l-46 -197h-272l-38 32l-46 199v-231h-322z" />
<glyph unicode="n" horiz-adv-x="1165" d="M685 664l-354 797h-301v-1399h268v797l354 -797h301v1399h-268v-797zM0 32v1459h351l33 -38l271 -611v649l328 -6l32 -32v-1453h-346l-37 32l-272 614v-646h-322z" />
<glyph unicode="o" d="M235 1461l-205 -206v-988l205 -205h457l205 205v988l-205 206h-457zM630 330h-332v863h332v-863zM704 1491l223 -224v-4l32 -32v-1010l-221 -221h-479l-32 32h-4l-223 223v1012l223 224h481zM600 1131h-240v-771h240v771z" />
<glyph unicode="p" d="M30 1461v-1399h268v532h394l205 205v456l-205 206h-662zM629 861h-331v332h331v-332zM704 1491l223 -224v-4l32 -32v-478l-221 -221h-378v-532h-322l-38 32v1459h704zM599 1131h-239v-240h239v240z" />
<glyph unicode="q" horiz-adv-x="1121" d="M235 1460l-205 -205v-988l205 -206h287l182 -187l193 185l-102 106l102 102v988l-205 205h-457zM523 446l-121 -117h-104v864h332v-857zM704 1490l223 -223v-4l32 -32v-1010l-90 -90q97 -103 102 -108l-232 -222l-33 33l-2 -2l-163 167h-282l-32 32h-4l-223 224v1012 l223 223h481zM600 410v721h-240v-772h30l134 129z" />
<glyph unicode="r" d="M30 1461v-1399h268v532h332v-532h267v626l-73 71l73 73v423l-205 206h-662zM630 861h-332v332h332v-332zM704 1491l223 -224v-4l32 -32v-445l-60 -60l15 -14q9 -8 13 -12v-4l32 -32v-664h-321l-32 32h-6v500h-240v-532h-322l-32 32h-6v1459h704zM600 1131h-240v-240h240 v240z" />
<glyph unicode="s" d="M235 1461l-205 -206v-423l200 -204h400v-298h-332v209h-268v-272l205 -205h457l205 205v421l-210 207h-389v298h332v-209h267v271l-205 206h-457zM704 1491l223 -224v-4l32 -32v-309h-257l225 -226l32 -32v-443l-221 -221h-479l-32 32h-4l-223 223v314h251l-251 251v447 l223 224h481zM360 360h240v206h-272l32 -35v-171zM360 925h275l-35 29v177h-240v-206z" />
<glyph unicode="t" horiz-adv-x="1027" d="M30 1461v-268h258v-1131h268v1131h259v268h-785zM845 1491l32 -38v-322h-259v-1131h-322l-38 32v1099h-220l-38 32v328h845z" />
<glyph unicode="u" d="M629 330h-331v1131h-268v-1194l205 -205h457l205 205v1194h-268v-1131zM599 1491h328l32 -38v-1232l-221 -221h-479l-259 255v1236h328l32 -38v-1093h239v1131z" />
<glyph unicode="v" horiz-adv-x="1259" d="M532 573l-225 888h-268l355 -1399h268l377 1399h-267zM371 32l-371 1459h330l33 -38l181 -718l205 756h329l31 -38l-391 -1453h-310z" />
<glyph unicode="w" horiz-adv-x="1679" d="M1058 706l-185 755h-249l-185 -755l-128 755h-276l229 -1399h315l170 747l168 -747h316l229 1399h-276zM369 1453l90 -532l141 570h297l32 -38l132 -539l100 577h336l32 -38l-238 -1453h-360l-38 32l-125 552l-133 -584h-359l-38 32l-238 1459h336z" />
<glyph unicode="x" horiz-adv-x="1165" d="M939 1461h-293l-153 -357l-153 357h-294l300 -700l-300 -699h293l154 357l153 -357h293l-300 699zM1015 1453l-311 -727q253 -590 311 -726h-352l-37 32l-110 255l-124 -287h-352l-40 32l313 729l-313 730h360l33 -38l108 -252l125 290h359z" />
<glyph unicode="y" horiz-adv-x="1259" d="M532 887l-223 574h-265l351 -900v-499h267v499l372 900h-265zM365 32v523l-365 936h329l33 -38l180 -463l207 501h330l30 -38l-385 -932v-521h-321z" />
<glyph unicode="z" horiz-adv-x="1044" d="M30 1193h457l-450 -863l-7 -16v-252h802v268h-457l450 863l7 15v253h-802v-268zM0 1491h862l32 -38v-285l-11 -25l-409 -783h388l32 -38v-322h-856l-38 32v288l11 26l409 785h-382l-38 32v328z" />
<glyph unicode="{" horiz-adv-x="640" d="M275 1461l-205 -206v-440l-40 -49l40 -47v-452l205 -205h153v268h-90v389l-40 47l40 49v378h90v268h-153zM458 1491l32 -38v-322h-90v-316l-40 -49l40 -47v-359h58l32 -38v-322h-191l-36 32l-223 223v464l-40 47l40 49v452l223 224h195z" />
<glyph unicode="|" horiz-adv-x="510" d="M30 62h268v1799h-268v-1799zM0 1891h328v-6l32 -32v-1853h-322l-32 32h-6v1859z" />
<glyph unicode="}" horiz-adv-x="640" d="M194 1491l224 -224v-4l32 -32v-425l40 -47l-40 -49v-489l-222 -221h-190l-32 32h-6v328h90v350l40 49l-40 47v325h-52l-38 32v328h194zM182 64l205 206v440l40 49l-40 47v452l-205 205h-153v-268h90v-389l40 -47l-40 -49v-378h-90v-268h153z" />
<glyph unicode="~" horiz-adv-x="1007" d="M594 862q4 -76 -206 30q-38 13 -71 21q-80 19 -144 -2q-67 -22 -105 -84q-32 -53 -37 -127l190 -39q-3 25 14 43q18 19 192 -50q174 -67 256 -15q82 54 108 185zM826 848l31 -37q-33 -171 -125 -230q-42 -27 -103 -27q-72 0 -177 40q-144 55 -162 57q-9 -12 -3 -58 l-249 51l-38 32q8 109 42 167q44 71 121 97q36 12 82 12q39 0 79 -10q45 -10 71 -20q124 -62 165 -62q4 0 2 39z" />
<glyph unicode="&#xa1;" horiz-adv-x="511" d="M298 62v1046h-268v-1046h268zM299 1463h-267v-268h267v268zM329 1487l32 -32v-322h-33v-1l32 -32v-1100h-322l-32 32h-6v1106h35l-27 27h-6v328h327v-6z" />
<glyph unicode="&#xa2;" d="M235 1114l-205 -206v-544l205 -205h94v-97h269v97h94l205 205v162h-267v-99h-332v419h332v-99h267v161l-205 206h-94v96h-269v-96h-94zM299 1144v96h329v-6l32 -32v-58h44l223 -224v-4l32 -32v-199h-321l-32 32h-6v67h-240v-327h240v99h327v-6l32 -32v-200l-221 -221h-78 v-97h-323l-32 32h-6v65h-40l-32 32h-4l-223 223v568l223 224h76z" />
<glyph unicode="&#xa3;" horiz-adv-x="1168" d="M0 836h59v431l223 224h481l223 -224v-4l32 -32v-309h-321l-38 32v177h-240v-295h197l32 -38v-201h-229v-237h567v-6l32 -32v-322h-921l-32 32h-6v565h-21l-38 32v207zM357 1193h332v-209h267v271l-205 206h-457l-205 -206v-449h-59v-147h59v-597h867v268h-599v863z M617 659v147h-260v-147h260z" />
<glyph unicode="&#xa4;" horiz-adv-x="150" />
<glyph unicode="&#xa5;" horiz-adv-x="150" />
<glyph unicode="&#xa6;" horiz-adv-x="150" />
<glyph unicode="&#xa7;" horiz-adv-x="150" />
<glyph unicode="&#xa8;" horiz-adv-x="933" d="M453 1616h268v268h-268v-268zM30 1616h268v268h-268v-268zM0 1914h328l32 -38v-322h-322l-38 32v328zM423 1914h328l32 -38v-322h-322l-38 32v328z" />
<glyph unicode="&#xa9;" horiz-adv-x="150" />
<glyph unicode="&#xaa;" horiz-adv-x="150" />
<glyph unicode="&#xab;" horiz-adv-x="150" />
<glyph unicode="&#xac;" horiz-adv-x="150" />
<glyph unicode="&#xad;" horiz-adv-x="913" d="M30 864h671v-268h-671v268zM0 566h6l32 -32h725v322l-32 32v6h-731v-328z" />
<glyph unicode="&#xae;" horiz-adv-x="150" />
<glyph unicode="&#xaf;" horiz-adv-x="150" />
<glyph unicode="&#xb0;" horiz-adv-x="150" />
<glyph unicode="&#xb1;" horiz-adv-x="150" />
<glyph unicode="&#xb2;" horiz-adv-x="150" />
<glyph unicode="&#xb3;" horiz-adv-x="150" />
<glyph unicode="&#xb4;" horiz-adv-x="734" d="M0 1584l220 449h334l30 -38l-217 -443h-327zM315 1614l191 389h-267l-191 -389h267z" />
<glyph unicode="&#xb5;" horiz-adv-x="150" />
<glyph unicode="&#xb6;" horiz-adv-x="150" />
<glyph unicode="&#xb7;" horiz-adv-x="150" />
<glyph unicode="&#xb8;" horiz-adv-x="782" d="M483 80l-227 82l-163 -444l-47 -131q276 6 290 -54q15 -60 -87 -56q-41 4 -70 24l-138 -198q82 -56 187 -67q103 -10 189 31q139 67 148 225q5 95 -62 166q-49 54 -141 95zM519 93l33 -32l-116 -311q52 -34 89 -72l9 -10l8 -10l11 -11l2 -2l1 -2l2 -2q74 -80 69 -186 q-10 -171 -163 -247q-75 -36 -161 -36q-15 0 -43 2q-110 10 -221 87l-23 24l-8 5l-8 5l160 231h-73q-17 -1 -25 -1h-19l-32 32h-7l61 171l173 472l283 -102zM199 -475q27 -15 51 -18q44 -2 54 8q-35 8 -105 10z" />
<glyph unicode="&#xb9;" horiz-adv-x="150" />
<glyph unicode="&#xba;" horiz-adv-x="150" />
<glyph unicode="&#xbb;" horiz-adv-x="150" />
<glyph unicode="&#xbc;" horiz-adv-x="150" />
<glyph unicode="&#xbd;" horiz-adv-x="150" />
<glyph unicode="&#xbe;" horiz-adv-x="150" />
<glyph unicode="&#xbf;" d="M692 62l205 205v272h-268v-209h-331v298h149l206 205v273h-268v-211h-147l-208 -211v-417l205 -205h457zM654 1461h-267v-268h267v268zM684 1485l32 -32v-322h-33v-1l32 -32v-311l-222 -221h-133v-206h239v209h328v-6l32 -32v-310l-221 -221h-479l-32 32h-4l-223 223v441 l226 229h129v211h35l-27 27h-6v328h327v-6z" />
<glyph unicode="&#xc0;" horiz-adv-x="1259" d="M371 300h340l61 -238h267l-355 1399h-268l-377 -1399h268zM643 568h-200l103 382zM0 32l393 1459h314l33 -38l369 -1453h-323l-37 32l-54 206h-268l-64 -238h-324zM565 752l-42 -154h82zM385 1613l-220 449h334l33 -38l217 -443h-327zM671 1643l-191 389h-267l191 -389 h267z" />
<glyph unicode="&#xc1;" horiz-adv-x="1259" d="M371 300h340l61 -238h267l-355 1399h-268l-377 -1399h268zM643 568h-200l103 382zM0 32l393 1459h314l33 -38l369 -1453h-323l-37 32l-54 206h-268l-64 -238h-324zM565 752l-42 -154h82zM360 1612l220 449h334l30 -38l-217 -443h-327zM675 1642l191 389h-267l-191 -389 h267z" />
<glyph unicode="&#xc2;" horiz-adv-x="1259" d="M371 300h340l61 -238h267l-355 1399h-268l-377 -1399h268zM643 568h-200l103 382zM0 32l393 1459h314l33 -38l369 -1453h-323l-37 32l-54 206h-268l-64 -238h-324zM565 752l-42 -154h82zM333 1612l-171 227q358 269 377 285l375 -288l33 -33l-168 -222l-205 154 l-205 -154q-35 31 -36 31zM739 1654l135 178l-335 254l-335 -254l135 -178l200 151z" />
<glyph unicode="&#xc3;" horiz-adv-x="1259" d="M371 300h340l61 -238h267l-355 1399h-268l-377 -1399h268zM643 568h-200l103 382zM0 32l393 1459h314l33 -38l369 -1453h-323l-37 32l-54 206h-268l-64 -238h-324zM565 752l-42 -154h82zM720 1890q4 -76 -206 30q-38 13 -71 21q-80 19 -144 -2q-67 -22 -105 -84 q-32 -53 -37 -127l190 -39q-3 25 14 43q18 19 192 -50q174 -67 256 -15q82 54 108 185zM952 1876l-1 -3v-2l32 -32q-33 -171 -125 -230q-42 -27 -103 -27q-72 0 -177 40q-144 55 -162 57q-9 -12 -3 -58l-249 51l-30 30l-8 2q8 109 42 167q44 71 121 97q36 12 82 12 q39 0 79 -10q45 -10 71 -20q124 -62 165 -62q4 0 2 39z" />
<glyph unicode="&#xc4;" horiz-adv-x="1259" d="M371 300h340l61 -238h267l-355 1399h-268l-377 -1399h268zM643 568h-200l103 382zM0 32l393 1459h314l33 -38l369 -1453h-323l-37 32l-54 206h-268l-64 -238h-324zM565 752l-42 -154h82zM616 1641h268v268h-268v-268zM193 1641h268v268h-268v-268zM163 1939h328l32 -38 v-322h-322l-38 32v328zM586 1939h328l32 -38v-322h-322l-38 32v328z" />
<glyph unicode="&#xc5;" horiz-adv-x="1259" d="M736 1630q0 82 -58 140q-57 58 -139 58t-140 -58q-57 -58 -57 -140q0 -81 58 -139q15 -17 37 -30h-21l-377 -1399h268l64 238h340l61 -238h267l-355 1399h-43q21 13 38 30q57 59 57 139zM574 1595q-14 -14 -35 -14q-20 0 -35 14q-14 15 -14 35q0 21 14 36q15 14 35 14 q21 0 35 -14q14 -15 14 -36q0 -20 -14 -35zM643 568h-200l103 382zM0 32l385 1431q-2 3 -6 7q-67 70 -67 160q0 92 66 161q67 67 161 67q95 0 160 -67q16 -18 25 -29l8 -8q66 -66 66 -159q0 -86 -57 -149l368 -1446h-323l-37 32l-54 206h-268l-64 -238h-324zM565 752 l-42 -154h82z" />
<glyph unicode="&#xc6;" horiz-adv-x="1710" d="M790 568h-203l203 382v-382zM1498 62v268h-441v298h352v267h-352v298h441v268h-708l-740 -1399h268l127 238h345v-238h708zM1119 360h409l32 -38v-322h-762l-38 32v206h-263l-127 -238h-330l-40 32l771 1459h757l32 -38v-322h-441v-206h320l32 -38v-321h-352v-206z M760 734l-74 -136h74v136z" />
<glyph unicode="&#xc7;" d="M334 -39l-27 -74q158 3 165 -31q9 -35 -49 -32q-22 3 -40 14l-78 -113q47 -32 106 -38q60 -6 108 18q78 38 83 128q3 53 -35 94q-28 31 -80 54l36 83h169l205 205v272h-267v-209h-332v863h332v-209h267v271l-205 206h-457l-205 -206v-988l205 -205h142zM319 2h-60l-32 32 h-4l-223 223v1012l223 224h481l223 -224v-4l32 -32v-309h-321l-38 32v177h-240v-771h240v209h327l32 -38v-310l-221 -221h-162q-5 -9 -13 -31q15 -12 26 -24q8 -8 14 -17l13 -13l2 -2l2 -3l2 -2q45 -50 42 -113v-1q-6 -103 -98 -150q-57 -28 -123 -21q-64 6 -141 58l-24 24 l-7 5l-8 5l75 108q-22 0 -35 -1l-32 32h-7l42 115z" />
<glyph unicode="&#xc8;" horiz-adv-x="953" d="M30 1461v-1399h711v268h-443v298h354v267h-354v298h443v268h-711zM771 1491l32 -38v-322h-443v-206h322l32 -38v-321h-354v-206h411l32 -38v-322h-765l-38 32v1459h771zM242 1612l-220 449h334l33 -38l217 -443h-327zM528 1642l-191 389h-267l191 -389h267z" />
<glyph unicode="&#xc9;" horiz-adv-x="953" d="M30 1461v-1399h711v268h-443v298h354v267h-354v298h443v268h-711zM771 1491l32 -38v-322h-443v-206h322l32 -38v-321h-354v-206h411l32 -38v-322h-765l-38 32v1459h771zM207 1614l220 449h334l30 -38l-217 -443h-327zM522 1644l191 389h-267l-191 -389h267z" />
<glyph unicode="&#xca;" horiz-adv-x="953" d="M30 1461v-1399h711v268h-443v298h354v267h-354v298h443v268h-711zM771 1491l32 -38v-322h-443v-206h322l32 -38v-321h-354v-206h411l32 -38v-322h-765l-38 32v1459h771zM180 1613l-171 227q358 269 377 285l375 -288l33 -33l-168 -222l-205 154l-205 -154q-35 31 -36 31z M586 1655l135 178l-335 254l-335 -254l135 -178l200 151z" />
<glyph unicode="&#xcb;" horiz-adv-x="953" d="M30 1461v-1399h711v268h-443v298h354v267h-354v298h443v268h-711zM771 1491l32 -38v-322h-443v-206h322l32 -38v-321h-354v-206h411l32 -38v-322h-765l-38 32v1459h771zM463 1640h268v268h-268v-268zM40 1640h268v268h-268v-268zM10 1938h328l32 -38v-322h-322l-38 32 v328zM433 1938h328l32 -38v-322h-322l-38 32v328z" />
<glyph unicode="&#xcc;" horiz-adv-x="509" d="M30 62h267v1399h-267v-1399zM0 1491h327l32 -38v-1453h-321l-38 32v1459zM3 1615l-219 449h334l5 -10l28 -28l216 -443h-327zM289 1645l-190 389h-267l190 -389h267z" />
<glyph unicode="&#xcd;" horiz-adv-x="509" d="M30 62h267v1399h-267v-1399zM0 1491h327l32 -38v-1453h-321l-38 32v1459zM0 1615l220 449h334l30 -38l-217 -443h-327zM315 1645l191 389h-267l-191 -389h267z" />
<glyph unicode="&#xce;" horiz-adv-x="510" d="M30 62h268v1399h-268v-1399zM0 1491h328l32 -38v-1453h-322l-38 32v1459zM-41 1595l-171 227q358 269 377 285l375 -288l33 -33l-168 -222l-205 154l-205 -154q-35 31 -36 31zM365 1637l135 178l-335 254l-335 -254l135 -178l200 151z" />
<glyph unicode="&#xcf;" horiz-adv-x="509" d="M30 62h267v1399h-267v-1399zM0 1491h327l32 -38v-1453h-321l-38 32v1459zM238 1641h267v268h-267v-268zM-185 1641h267v268h-267v-268zM208 1939h327l32 -38v-322h-321l-38 32v328zM-215 1939h327l32 -38v-322h-321l-38 32v328z" />
<glyph unicode="&#xd0;" horiz-adv-x="1189" d="M30 895v-267h80v-566h662l205 205v988l-205 206h-662v-566h-80zM378 895v298h332v-863h-332v298h158v267h-158zM80 925v566h704l223 -228l32 -32v-1010l-221 -221h-700l-38 32v534h-42l-38 32v327h80zM440 360h240v771h-240v-206h126l32 -38v-321h-158v-206z" />
<glyph unicode="&#xd1;" horiz-adv-x="1165" d="M685 664l-354 797h-301v-1399h268v797l354 -797h301v1399h-268v-797zM0 32v1459h351l33 -38l271 -611v649l328 -6l32 -32v-1453h-346l-37 32l-272 614v-646h-322zM689 1888q4 -76 -206 30q-38 13 -71 21q-80 19 -144 -2q-67 -22 -105 -84q-32 -53 -37 -127l190 -39 q-3 25 14 43q18 19 192 -50q174 -67 256 -15q82 54 108 185zM921 1874l31 -37q-33 -171 -125 -230q-42 -27 -103 -27q-72 0 -177 40q-144 55 -162 57q-9 -12 -3 -58l-249 51l-38 32q8 109 42 167q44 71 121 97q36 12 82 12q39 0 79 -10q45 -10 71 -20q124 -62 165 -62 q4 0 2 39z" />
<glyph unicode="&#xd2;" d="M235 1461l-205 -206v-988l205 -205h457l205 205v988l-205 206h-457zM630 330h-332v863h332v-863zM704 1491l223 -224v-4l32 -32v-1010l-221 -221h-479l-32 32h-4l-223 223v1012l223 224h481zM600 1131h-240v-771h240v771zM310 1613l-220 449h334l33 -38l217 -443h-327z M596 1643l-191 389h-267l191 -389h267z" />
<glyph unicode="&#xd3;" d="M235 1461l-205 -206v-988l205 -205h457l205 205v988l-205 206h-457zM630 330h-332v863h332v-863zM704 1491l223 -224v-4l32 -32v-1010l-221 -221h-479l-32 32h-4l-223 223v1012l223 224h481zM600 1131h-240v-771h240v771zM285 1614l220 449h334l30 -38l-217 -443h-327z M600 1644l191 389h-267l-191 -389h267z" />
<glyph unicode="&#xd4;" d="M235 1461l-205 -206v-988l205 -205h457l205 205v988l-205 206h-457zM630 330h-332v863h332v-863zM704 1491l223 -224v-4l32 -32v-1010l-221 -221h-479l-32 32h-4l-223 223v1012l223 224h481zM600 1131h-240v-771h240v771zM258 1612l-171 227q358 269 377 285l375 -288 l33 -33l-168 -222l-205 154l-205 -154q-35 31 -36 31zM664 1654l135 178l-335 254l-335 -254l135 -178l200 151z" />
<glyph unicode="&#xd5;" d="M235 1461l-205 -206v-988l205 -205h457l205 205v988l-205 206h-457zM630 330h-332v863h332v-863zM704 1491l223 -224v-4l32 -32v-1010l-221 -221h-479l-32 32h-4l-223 223v1012l223 224h481zM600 1131h-240v-771h240v771zM645 1886q4 -76 -206 30q-38 13 -71 21 q-80 19 -144 -2q-67 -22 -105 -84q-32 -53 -37 -127l190 -39q-3 25 14 43q18 19 192 -50q174 -67 256 -15q82 54 108 185zM877 1872l31 -37q-33 -171 -125 -230q-42 -27 -103 -27q-72 0 -177 40q-144 55 -162 57q-9 -12 -3 -58l-249 51l-38 32q8 109 42 167q44 71 121 97 q36 12 82 12q39 0 79 -10q45 -10 71 -20q124 -62 165 -62q4 0 2 39z" />
<glyph unicode="&#xd6;" d="M235 1461l-205 -206v-988l205 -205h457l205 205v988l-205 206h-457zM630 330h-332v863h332v-863zM704 1491l223 -224v-4l32 -32v-1010l-221 -221h-479l-32 32h-4l-223 223v1012l223 224h481zM600 1131h-240v-771h240v771zM541 1640h268v268h-268v-268zM118 1640h268v268 h-268v-268zM88 1938h328l32 -38v-322h-322l-38 32v328zM511 1938h328l32 -38v-322h-322l-38 32v328z" />
<glyph unicode="&#xd7;" horiz-adv-x="925" d="M513 397l189 189l-140 141l140 141l-189 189l-140 -141l-142 141l-189 -189l142 -141l-142 -141l189 -189l142 141zM405 462l-71 -71l-18 -18l-18 -17l-32 -32l-33 33l-2 -2l-231 231l142 141q-30 29 -73 72l-36 36l-17 17l-16 16l231 231l142 -141l17 17l18 18l37 37 q42 42 68 69l231 -231l-2 -2l33 -33l-140 -140q26 -24 39 -37q15 -14 37 -36l17 -18l16 -16l-2 -2l6 -5q19 -19 27 -28l-227 -227l-33 33l-2 -2z" />
<glyph unicode="&#xd8;" d="M235 1461l-205 -206v-988l205 -205h457l205 205v988l-205 206h-457zM298 589v604h305zM630 872v-542h-273zM704 1491l223 -224v-4l32 -32v-1010l-221 -221h-479l-32 32h-4l-223 223v1012l223 224h481zM360 778l178 353h-178v-353zM600 360v289l-146 -289h146z" />
<glyph unicode="&#xd9;" d="M629 330h-331v1131h-268v-1194l205 -205h457l205 205v1194h-268v-1131zM599 1491h328v-6l32 -32v-1232l-221 -221h-479l-32 32h-4l-223 223v1236h328v-6l32 -32v-1093h239v1131zM335 1614h-5l-220 449h334l5 -10l28 -28l217 -443h-327zM616 1644l-191 389h-267l191 -389 h267z" />
<glyph unicode="&#xda;" d="M629 330h-331v1131h-268v-1194l205 -205h457l205 205v1194h-268v-1131zM599 1491h328v-6l32 -32v-1232l-221 -221h-479l-32 32h-4l-223 223v1236h328v-6l32 -32v-1093h239v1131zM271 1615h-8l220 449h334l-3 -6l33 -32l-217 -443h-327zM578 1645l191 389h-267l-191 -389 h267z" />
<glyph unicode="&#xdb;" d="M629 330h-331v1131h-268v-1194l205 -205h457l205 205v1194h-268v-1131zM599 1491h328v-6l32 -32v-1232l-221 -221h-479l-32 32h-4l-223 223v1236h328v-6l32 -32v-1093h239v1131zM230 1615q-2 -2 -3 -2l-171 227l291 220l16 12l9 7l10 7q32 23 51 39l86 -65 q44 -34 144 -110q83 -63 147 -110l-2 -3l33 -33l-168 -222l-205 154q-21 -16 -50 -38q-18 -13 -54 -40q-72 -54 -101 -76zM633 1655l135 178l-267 203l-68 51l-68 -51l-267 -203l135 -178l200 151z" />
<glyph unicode="&#xdc;" d="M629 330h-331v1131h-268v-1194l205 -205h457l205 205v1194h-268v-1131zM599 1491h328v-6l32 -32v-1232l-221 -221h-479l-32 32h-4l-223 223v1236h328v-6l32 -32v-1093h239v1131zM553 1641h268v268h-268v-268zM130 1641h268v268h-268v-268zM100 1939h328v-6l32 -32v-322 h-322l-32 32h-6v328zM523 1939h328v-6l32 -32v-322h-322l-32 32h-6v328z" />
<glyph unicode="&#xdd;" horiz-adv-x="1259" d="M532 887l-223 574h-265l351 -900v-499h267v499l372 900h-265zM371 32h-6v523q-97 245 -182 466l-23 59l-23 59l-47 120q-53 135 -90 232h329l3 -8l30 -30l180 -463l207 501h330l-3 -6l33 -32l-385 -932v-521h-321zM347 1614h-8l220 449h334l-3 -6l33 -32l-217 -443h-327z M654 1644l191 389h-267l-191 -389h267z" />
<glyph unicode="&#xde;" d="M629 461h-331v592h331v-592zM298 1461h-267v-140h-1v-1127h1v-132h267v132h394l205 205v716l-205 206h-394v140zM328 1485l32 -32v-102h344l223 -224v-4l32 -32v-738l-221 -221h-378v-132h-321l-32 32h-6l-1 162l1 1127v170h327v-6zM599 991h-239v-500h239v500z" />
<glyph unicode="&#xdf;" horiz-adv-x="1153" d="M736 1461h-501l-205 -206v-1193h268v1131h376v-298h-213v-267h213v-298h-213v-268h275l205 205v421l-72 71l72 73v423zM971 1267v-4l32 -32v-445l-59 -60l27 -26v-4l32 -32v-443l-221 -221h-313l-32 32h-6v328h213v206h-175l-32 32h-6v327h213v206h-284v-1131h-322 l-32 32h-6v1235l223 224h525zM913 752l6 -6z" />
<glyph unicode="&#xe0;" horiz-adv-x="1259" d="M371 300h340l61 -238h267l-355 1399h-268l-377 -1399h268zM643 568h-200l103 382zM0 32l393 1459h314l33 -38l369 -1453h-323l-37 32l-54 206h-268l-64 -238h-324zM565 752l-42 -154h82zM385 1610l-220 449h334l33 -38l217 -443h-327zM671 1640l-191 389h-267l191 -389 h267z" />
<glyph unicode="&#xe1;" horiz-adv-x="1259" d="M371 300h340l61 -238h267l-355 1399h-268l-377 -1399h268zM643 568h-200l103 382zM0 32l393 1459h314l33 -38l369 -1453h-323l-37 32l-54 206h-268l-64 -238h-324zM565 752l-42 -154h82zM360 1611l220 449h334l30 -38l-217 -443h-327zM675 1641l191 389h-267l-191 -389 h267z" />
<glyph unicode="&#xe2;" horiz-adv-x="1259" d="M371 300h340l61 -238h267l-355 1399h-268l-377 -1399h268zM643 568h-200l103 382zM0 32l393 1459h314l33 -38l369 -1453h-323l-37 32l-54 206h-268l-64 -238h-324zM565 752l-42 -154h82zM333 1612l-171 227q358 269 377 285l375 -288l33 -33l-168 -222l-205 154 l-205 -154q-35 31 -36 31zM739 1654l135 178l-335 254l-335 -254l135 -178l200 151z" />
<glyph unicode="&#xe3;" horiz-adv-x="1259" d="M722 1889q4 -76 -206 30q-38 13 -71 21q-80 19 -144 -2q-67 -22 -105 -84q-32 -53 -37 -127l190 -39q-3 25 14 43q18 19 192 -50q174 -67 256 -15q82 54 108 185zM954 1875l-1 -3v-2l32 -32q-33 -171 -125 -230q-42 -27 -103 -27q-72 0 -177 40q-144 55 -162 57 q-9 -12 -3 -58l-249 51l-31 30l-7 2q8 109 42 167q44 71 121 97q36 12 82 12q39 0 79 -10q45 -10 71 -20q124 -62 165 -62q4 0 2 39zM371 300h340l61 -238h267l-355 1399h-268l-377 -1399h268zM643 568h-200l103 382zM0 32l393 1459h314l33 -38l369 -1453h-323l-37 32 l-54 206h-268l-64 -238h-324zM565 752l-42 -154h82z" />
<glyph unicode="&#xe4;" horiz-adv-x="1259" d="M371 300h340l61 -238h267l-355 1399h-268l-377 -1399h268zM643 568h-200l103 382zM0 32l393 1459h314l33 -38l369 -1453h-323l-37 32l-54 206h-268l-64 -238h-324zM565 752l-42 -154h82zM616 1643h268v268h-268v-268zM193 1643h268v268h-268v-268zM163 1941h328l32 -38 v-322h-322l-38 32v328zM586 1941h328l32 -38v-322h-322l-38 32v328z" />
<glyph unicode="&#xe5;" horiz-adv-x="1259" d="M736 1630q0 82 -58 140q-57 58 -139 58t-140 -58q-57 -58 -57 -140q0 -81 58 -139q15 -17 37 -30h-21l-377 -1399h268l64 238h340l61 -238h267l-355 1399h-43q21 13 38 30q57 59 57 139zM574 1595q-14 -14 -35 -14q-20 0 -35 14q-14 15 -14 35q0 21 14 36q15 14 35 14 q21 0 35 -14q14 -15 14 -36q0 -20 -14 -35zM643 568h-200l103 382zM0 32l385 1431q-2 3 -6 7q-67 70 -67 160q0 92 66 161q67 67 161 67q95 0 160 -67q16 -18 25 -29l8 -8q66 -66 66 -159q0 -86 -57 -149l368 -1446h-323l-37 32l-54 206h-268l-64 -238h-324zM565 752 l-42 -154h82z" />
<glyph unicode="&#xe6;" horiz-adv-x="1710" d="M790 568h-203l203 382v-382zM1498 62v268h-441v298h352v267h-352v298h441v268h-708l-740 -1399h268l127 238h345v-238h708zM1119 360h409l32 -38v-322h-762l-38 32v206h-263l-127 -238h-330l-40 32l771 1459h757l32 -38v-322h-441v-206h320l32 -38v-321h-352v-206z M760 734l-74 -136h74v136z" />
<glyph unicode="&#xe7;" d="M334 -39l-27 -74q158 3 165 -31q9 -35 -49 -32q-22 3 -40 14l-78 -113q47 -32 106 -38q60 -6 108 18q78 38 83 128q3 53 -35 94q-28 31 -80 54l36 83h169l205 205v272h-267v-209h-332v863h332v-209h267v271l-205 206h-457l-205 -206v-988l205 -205h142zM319 2h-60l-32 32 h-4l-223 223v1012l223 224h481l223 -224v-4l32 -32v-309h-321l-38 32v177h-240v-771h240v209h327l32 -38v-310l-221 -221h-162q-5 -9 -13 -31q15 -12 26 -24q8 -8 14 -17l13 -13l2 -2l2 -3l2 -2q45 -50 42 -113v-1q-6 -103 -98 -150q-57 -28 -123 -21q-64 6 -141 58l-24 24 l-7 5l-8 5l75 108q-22 0 -35 -1l-32 32h-7l42 115z" />
<glyph unicode="&#xe8;" horiz-adv-x="953" d="M30 1461v-1399h711v268h-443v298h354v267h-354v298h443v268h-711zM771 1491l32 -38v-322h-443v-206h322l32 -38v-321h-354v-206h411l32 -38v-322h-765l-38 32v1459h771zM232 1614l-220 449h334l33 -38l217 -443h-327zM518 1644l-191 389h-267l191 -389h267z" />
<glyph unicode="&#xe9;" horiz-adv-x="953" d="M30 1461v-1399h711v268h-443v298h354v267h-354v298h443v268h-711zM771 1491l32 -38v-322h-443v-206h322l32 -38v-321h-354v-206h411l32 -38v-322h-765l-38 32v1459h771zM206 1613l220 449h334l30 -38l-217 -443h-327zM521 1643l191 389h-267l-191 -389h267z" />
<glyph unicode="&#xea;" horiz-adv-x="953" d="M30 1461v-1399h711v268h-443v298h354v267h-354v298h443v268h-711zM771 1491l32 -38v-322h-443v-206h322l32 -38v-321h-354v-206h411l32 -38v-322h-765l-38 32v1459h771zM180 1613l-171 227q358 269 377 285l375 -288l33 -33l-168 -222l-205 154l-205 -154q-35 31 -36 31z M586 1655l135 178l-335 254l-335 -254l135 -178l200 151z" />
<glyph unicode="&#xeb;" horiz-adv-x="953" d="M30 1461v-1399h711v268h-443v298h354v267h-354v298h443v268h-711zM771 1491l32 -38v-322h-443v-206h322l32 -38v-321h-354v-206h411l32 -38v-322h-765l-38 32v1459h771zM463 1640h268v268h-268v-268zM40 1640h268v268h-268v-268zM10 1938h328l32 -38v-322h-322l-38 32 v328zM433 1938h328l32 -38v-322h-322l-38 32v328z" />
<glyph unicode="&#xec;" horiz-adv-x="509" d="M30 62h267v1399h-267v-1399zM0 1491h327l32 -38v-1453h-321l-38 32v1459zM3 1615l-219 449h334l5 -10l28 -28l216 -443h-327zM289 1645l-190 389h-267l190 -389h267z" />
<glyph unicode="&#xed;" horiz-adv-x="509" d="M30 62h267v1399h-267v-1399zM0 1491h327l32 -38v-1453h-321l-38 32v1459zM0 1615l220 449h334l30 -38l-217 -443h-327zM315 1645l191 389h-267l-191 -389h267z" />
<glyph unicode="&#xee;" horiz-adv-x="510" d="M30 62h268v1399h-268v-1399zM0 1491h328l32 -38v-1453h-322l-38 32v1459zM-41 1595l-171 227q358 269 377 285l375 -288l33 -33l-168 -222l-205 154l-205 -154q-35 31 -36 31zM365 1637l135 178l-335 254l-335 -254l135 -178l200 151z" />
<glyph unicode="&#xef;" horiz-adv-x="509" d="M30 62h267v1399h-267v-1399zM0 1491h327l32 -38v-1453h-321l-38 32v1459zM238 1641h267v268h-267v-268zM-185 1641h267v268h-267v-268zM208 1939h327l32 -38v-322h-321l-38 32v328zM-215 1939h327l32 -38v-322h-321l-38 32v328z" />
<glyph unicode="&#xf0;" horiz-adv-x="1189" d="M30 895v-267h80v-566h662l205 205v988l-205 206h-662v-566h-80zM378 895v298h332v-863h-332v298h158v267h-158zM80 925v566h704l223 -228l32 -32v-1010l-221 -221h-700l-38 32v534h-42l-38 32v327h80zM440 360h240v771h-240v-206h126l32 -38v-321h-158v-206z" />
<glyph unicode="&#xf1;" horiz-adv-x="1165" d="M685 664l-354 797h-301v-1399h268v797l354 -797h301v1399h-268v-797zM0 32v1459h351l33 -38l271 -611v649l328 -6l32 -32v-1453h-346l-37 32l-272 614v-646h-322zM673 1888q4 -76 -206 30q-38 13 -71 21q-80 19 -144 -2q-67 -22 -105 -84q-32 -53 -37 -127l190 -39 q-3 25 14 43q18 19 192 -50q174 -67 256 -15q82 54 108 185zM905 1874l31 -37q-33 -171 -125 -230q-42 -27 -103 -27q-72 0 -177 40q-144 55 -162 57q-9 -12 -3 -58l-249 51l-38 32q8 109 42 167q44 71 121 97q36 12 82 12q39 0 79 -10q45 -10 71 -20q124 -62 165 -62 q4 0 2 39z" />
<glyph unicode="&#xf2;" d="M235 1461l-205 -206v-988l205 -205h457l205 205v988l-205 206h-457zM630 330h-332v863h332v-863zM704 1491l223 -224v-4l32 -32v-1010l-221 -221h-479l-32 32h-4l-223 223v1012l223 224h481zM600 1131h-240v-771h240v771zM315 1593l-220 449h334l33 -38l217 -443h-327z M601 1623l-191 389h-267l191 -389h267z" />
<glyph unicode="&#xf3;" d="M235 1461l-205 -206v-988l205 -205h457l205 205v988l-205 206h-457zM630 330h-332v863h332v-863zM704 1491l223 -224v-4l32 -32v-1010l-221 -221h-479l-32 32h-4l-223 223v1012l223 224h481zM600 1131h-240v-771h240v771zM285 1614l220 449h334l30 -38l-217 -443h-327z M600 1644l191 389h-267l-191 -389h267z" />
<glyph unicode="&#xf4;" d="M235 1461l-205 -206v-988l205 -205h457l205 205v988l-205 206h-457zM630 330h-332v863h332v-863zM704 1491l223 -224v-4l32 -32v-1010l-221 -221h-479l-32 32h-4l-223 223v1012l223 224h481zM600 1131h-240v-771h240v771zM258 1611l-171 227q358 269 377 285l375 -288 l33 -33l-168 -222l-205 154l-205 -154q-35 31 -36 31zM664 1653l135 178l-335 254l-335 -254l135 -178l200 151z" />
<glyph unicode="&#xf5;" d="M235 1461l-205 -206v-988l205 -205h457l205 205v988l-205 206h-457zM630 330h-332v863h332v-863zM704 1491l223 -224v-4l32 -32v-1010l-221 -221h-479l-32 32h-4l-223 223v1012l223 224h481zM600 1131h-240v-771h240v771zM645 1886q4 -76 -206 30q-38 13 -71 21 q-80 19 -144 -2q-67 -22 -105 -84q-32 -53 -37 -127l190 -39q-3 25 14 43q18 19 192 -50q174 -67 256 -15q82 54 108 185zM877 1872l31 -37q-33 -171 -125 -230q-42 -27 -103 -27q-72 0 -177 40q-144 55 -162 57q-9 -12 -3 -58l-249 51l-38 32q8 109 42 167q44 71 121 97 q36 12 82 12q39 0 79 -10q45 -10 71 -20q124 -62 165 -62q4 0 2 39z" />
<glyph unicode="&#xf6;" d="M235 1461l-205 -206v-988l205 -205h457l205 205v988l-205 206h-457zM630 330h-332v863h332v-863zM704 1491l223 -224v-4l32 -32v-1010l-221 -221h-479l-32 32h-4l-223 223v1012l223 224h481zM600 1131h-240v-771h240v771zM541 1644h268v268h-268v-268zM118 1644h268v268 h-268v-268zM88 1942h328l32 -38v-322h-322l-38 32v328zM511 1942h328l32 -38v-322h-322l-38 32v328z" />
<glyph unicode="&#xf7;" horiz-adv-x="1124" d="M912 609v267h-882v-267h882zM337 949h268v268h-268v-268zM337 262h268v268h-268v-268zM307 1247h328v-6l32 -32v-303h275v-6l32 -32v-321h-332l25 -25v-322h-322l-32 32h-6v315h-269l-38 32v327h326l-19 13v328z" />
<glyph unicode="&#xf8;" d="M235 1461l-205 -206v-988l205 -205h457l205 205v988l-205 206h-457zM298 589v604h305zM630 872v-542h-273zM704 1491l223 -224v-4l32 -32v-1010l-221 -221h-479l-32 32h-4l-223 223v1012l223 224h481zM360 778l178 353h-178v-353zM600 360v289l-146 -289h146z" />
<glyph unicode="&#xf9;" d="M629 330h-331v1131h-268v-1194l205 -205h457l205 205v1194h-268v-1131zM599 1491h328l32 -38v-1232l-221 -221h-479l-259 255v1236h328l32 -38v-1093h239v1131zM310 1613l-220 449h334l33 -38l217 -443h-327zM596 1643l-191 389h-267l191 -389h267z" />
<glyph unicode="&#xfa;" d="M629 330h-331v1131h-268v-1194l205 -205h457l205 205v1194h-268v-1131zM599 1491h328l32 -38v-1232l-221 -221h-479l-259 255v1236h328l32 -38v-1093h239v1131zM285 1614l220 449h334l30 -38l-217 -443h-327zM600 1644l191 389h-267l-191 -389h267z" />
<glyph unicode="&#xfb;" d="M629 330h-331v1131h-268v-1194l205 -205h457l205 205v1194h-268v-1131zM599 1491h328l32 -38v-1232l-221 -221h-479l-259 255v1236h328l32 -38v-1093h239v1131zM258 1612l-171 227q358 269 377 285l375 -288l33 -33l-168 -222l-205 154l-205 -154q-35 31 -36 31z M664 1654l135 178l-335 254l-335 -254l135 -178l200 151z" />
<glyph unicode="&#xfc;" d="M629 330h-331v1131h-268v-1194l205 -205h457l205 205v1194h-268v-1131zM599 1491h328l32 -38v-1232l-221 -221h-479l-259 255v1236h328l32 -38v-1093h239v1131zM541 1643h268v268h-268v-268zM118 1643h268v268h-268v-268zM88 1941h328l32 -38v-322h-322l-38 32v328z M511 1941h328l32 -38v-322h-322l-38 32v328z" />
<glyph unicode="&#xfd;" horiz-adv-x="1259" d="M532 887l-223 574h-265l351 -900v-499h267v499l372 900h-265zM365 32v523l-365 936h329l33 -38l180 -463l207 501h330l30 -38l-385 -932v-521h-321zM360 1613l220 449h334l30 -38l-217 -443h-327zM675 1643l191 389h-267l-191 -389h267z" />
<glyph unicode="&#xfe;" horiz-adv-x="1108" d="M628 461h-331v592h331v-592zM297 1461h-267v-1399h267v132h394l205 205v716l-205 206h-394v140zM359 1453v-102h344l223 -224l32 -36v-738l-221 -221h-378v-132h-321l-38 32v1459h327zM598 991h-239v-500h239v500z" />
<glyph unicode="&#xff;" horiz-adv-x="1259" d="M532 887l-223 574h-265l351 -900v-499h267v499l372 900h-265zM365 32v523l-365 936h329l33 -38l180 -463l207 501h330l30 -38l-385 -932v-521h-321zM616 1641h268v268h-268v-268zM193 1641h268v268h-268v-268zM163 1939h328l32 -38v-322h-322l-38 32v328zM586 1939h328 l32 -38v-322h-322l-38 32v328z" />
<glyph unicode="&#x104;" horiz-adv-x="1259" d="M760 -211q25 -25 75 -46q52 -23 140 -7v150q-46 -21 -73 14t43 96q44 40 89 68h5l-355 1399h-268l-377 -1399h268l64 238h340l61 -238h18q-78 -91 -81 -153q-4 -73 51 -122zM643 570h-200l103 382zM679 -87q5 62 64 142l-48 185h-268l-64 -238h-324l-39 32l393 1459h314 l33 -38l369 -1453q-68 -23 -111 -61q-7 -5 -13 -11q-4 -4 -10 -11q12 6 30 12l32 -40l-1 -213q-70 -11 -92 -11q-48 0 -85 16q-52 22 -82 51l-5 5l-5 5l-4 4q-12 8 -23 19q-65 59 -61 146zM565 754l-42 -154h82z" />
<glyph unicode="&#x105;" horiz-adv-x="1259" d="M760 -211q25 -25 75 -46q52 -23 140 -7v150q-46 -21 -73 14t43 96q44 40 89 68h5l-355 1399h-268l-377 -1399h268l64 238h340l61 -238h18q-78 -91 -81 -153q-4 -73 51 -122zM643 570h-200l103 382zM679 -87q5 62 64 142l-48 185h-268l-64 -238h-324l-39 32l393 1459h314 l33 -38l369 -1453q-68 -23 -111 -61q-7 -5 -13 -11q-4 -4 -10 -11q12 6 30 12l32 -40l-1 -213q-70 -11 -92 -11q-48 0 -85 16q-52 22 -82 51l-5 5l-5 5l-4 4q-12 8 -23 19q-65 59 -61 146zM565 754l-42 -154h82z" />
<glyph unicode="&#x106;" d="M235 1461l-205 -206v-988l205 -205h457l205 205v272h-267v-209h-332v863h332v-209h267v271l-205 206h-457zM704 1491l255 -260v-309h-321l-38 32v177h-240v-771h240v209h327l32 -38v-310l-221 -221h-479l-36 32l-223 223v1012l223 224h481zM285 1614l220 449h334l30 -38 l-217 -443h-327zM600 1644l191 389h-267l-191 -389h267z" />
<glyph unicode="&#x107;" d="M235 1461l-205 -206v-988l205 -205h457l205 205v272h-267v-209h-332v863h332v-209h267v271l-205 206h-457zM704 1491l255 -260v-309h-321l-38 32v177h-240v-771h240v209h327l32 -38v-310l-221 -221h-479l-36 32l-223 223v1012l223 224h481zM285 1614l220 449h334l30 -38 l-217 -443h-327zM600 1644l191 389h-267l-191 -389h267z" />
<glyph unicode="&#x118;" horiz-adv-x="953" d="M464 -206q28 -28 74 -46q53 -23 141 -8v151q-47 -23 -73 13q-27 35 42 96q39 36 93 64v268h-443v298h354v267h-354v298h443v268h-711v-1399h461q-76 -88 -79 -148q-3 -74 52 -122zM408 2h-370l-38 32v1459h771l32 -38v-322h-443v-206h322l32 -38v-321h-354v-206h411 l32 -38v-311q-64 -33 -102 -68q-12 -9 -22 -21l30 15l32 -40v-217q-58 -10 -92 -10q-49 0 -87 16l-1 1q-48 18 -117 83q-66 59 -62 145q2 42 26 85z" />
<glyph unicode="&#x119;" horiz-adv-x="953" d="M464 -206q28 -28 74 -46q53 -23 141 -8v151q-47 -23 -73 13q-27 35 42 96q39 36 93 64v268h-443v298h354v267h-354v298h443v268h-711v-1399h461q-76 -88 -79 -148q-3 -74 52 -122zM408 2h-370l-38 32v1459h771l32 -38v-322h-443v-206h322l32 -38v-321h-354v-206h411 l32 -38v-311q-64 -33 -102 -68q-12 -9 -22 -21l30 15l32 -40v-217q-58 -10 -92 -10q-49 0 -87 16l-1 1q-48 18 -117 83q-66 59 -62 145q2 42 26 85z" />
<glyph unicode="&#x131;" horiz-adv-x="509" d="M30 62h267v1399h-267v-1399zM0 1491h327l32 -38v-1453h-321l-38 32v1459z" />
<glyph unicode="&#x141;" horiz-adv-x="953" d="M-125 574l97 -91l58 62v-483h710v268h-442v500l178 190l-97 91l-81 -86v436h-268v-722zM0 750v741h328l32 -38v-318l18 18l140 -132l31 -35l-189 -201v-425h410l32 -38v-322h-764l-38 32v386l-25 23h-1l-141 132z" />
<glyph unicode="&#x142;" horiz-adv-x="953" d="M-125 574l97 -91l58 62v-483h710v268h-442v500l178 190l-97 91l-81 -86v436h-268v-722zM0 750v741h328l32 -38v-318l18 18l140 -132l31 -35l-189 -201v-425h410l32 -38v-322h-764l-38 32v386l-25 23h-1l-141 132z" />
<glyph unicode="&#x143;" horiz-adv-x="1165" d="M685 664l-354 797h-301v-1399h268v797l354 -797h301v1399h-268v-797zM0 32v1459h351l33 -38l271 -611v649l328 -6l32 -32v-1453h-346l-37 32l-272 614v-646h-322zM313 1614l220 449h334l30 -38l-217 -443h-327zM628 1644l191 389h-267l-191 -389h267z" />
<glyph unicode="&#x144;" horiz-adv-x="1165" d="M685 664l-354 797h-301v-1399h268v797l354 -797h301v1399h-268v-797zM0 32v1459h351l33 -38l271 -611v649l328 -6l32 -32v-1453h-346l-37 32l-272 614v-646h-322zM313 1614l220 449h334l30 -38l-217 -443h-327zM628 1644l191 389h-267l-191 -389h267z" />
<glyph unicode="&#x147;" horiz-adv-x="1165" d="M685 664l-354 797h-301v-1399h268v797l354 -797h301v1399h-268v-797zM0 32v1459h351l33 -38l271 -611v649l328 -6l32 -32v-1453h-346l-37 32l-272 614v-646h-322zM698 2123l202 -261l-373 -282l-412 316l172 227l205 -156zM492 1930l-200 151l-135 -178l335 -254l335 254 l-135 178z" />
<glyph unicode="&#x148;" horiz-adv-x="1165" d="M685 664l-354 797h-301v-1399h268v797l354 -797h301v1399h-268v-797zM0 32v1459h351l33 -38l271 -611v649l328 -6l32 -32v-1453h-346l-37 32l-272 614v-646h-322zM698 2123l202 -261l-373 -282l-412 316l172 227l205 -156zM492 1930l-200 151l-135 -178l335 -254l335 254 l-135 178z" />
<glyph unicode="&#x152;" horiz-adv-x="1552" d="M863 62h477v268h-443v298h355v267h-355v298h443v268h-1105l-205 -206v-988l205 -205h461l83 80zM630 330h-332v863h332v-863zM812 68l-70 -68h-483l-32 32h-4l-223 223v1012l223 224h1147l32 -38v-322h-443v-206h323l32 -38v-321h-355v-206h411l32 -38v-322h-516z M600 1131h-240v-771h240v771z" />
<glyph unicode="&#x153;" horiz-adv-x="1552" d="M863 62h477v268h-443v298h355v267h-355v298h443v268h-1105l-205 -206v-988l205 -205h461l83 80zM630 330h-332v863h332v-863zM812 68l-70 -68h-483l-32 32h-4l-223 223v1012l223 224h1147l32 -38v-322h-443v-206h323l32 -38v-321h-355v-206h411l32 -38v-322h-516z M600 1131h-240v-771h240v771z" />
<glyph unicode="&#x158;" d="M30 1461v-1399h268v532h332v-532h267v626l-73 71l73 73v423l-205 206h-662zM630 861h-332v332h332v-332zM704 1491l223 -224v-4l32 -32v-445l-60 -60l15 -14q9 -8 13 -12v-4l32 -32v-664h-321l-32 32h-6v500h-240v-532h-322l-32 32h-6v1459h704zM600 1131h-240v-240h240 v240zM670 2123l202 -261l-373 -282l-412 316l172 227l205 -156zM464 1930l-200 151l-135 -178l335 -254l335 254l-135 178z" />
<glyph unicode="&#x159;" d="M30 1461v-1399h268v532h332v-532h267v626l-73 71l73 73v423l-205 206h-662zM630 861h-332v332h332v-332zM704 1491l223 -224v-4l32 -32v-445l-60 -60l15 -14q9 -8 13 -12v-4l32 -32v-664h-321l-32 32h-6v500h-240v-532h-322l-32 32h-6v1459h704zM600 1131h-240v-240h240 v240zM670 2123l202 -261l-373 -282l-412 316l172 227l205 -156zM464 1930l-200 151l-135 -178l335 -254l335 254l-135 178z" />
<glyph unicode="&#x160;" d="M235 1461l-205 -206v-423l200 -204h400v-298h-332v209h-268v-272l205 -205h457l205 205v421l-210 207h-389v298h332v-209h267v271l-205 206h-457zM704 1491l223 -224l32 -36v-309h-257l225 -226l32 -32v-443l-221 -221h-479l-32 32h-4l-223 223v314h251l-251 251v447 l223 224h481zM360 360h240v206h-272l32 -35v-171zM360 925h275l-35 29v177h-240v-206zM670 2123l202 -261l-373 -282l-412 316l172 227l205 -156zM464 1930l-200 151l-135 -178l335 -254l335 254l-135 178z" />
<glyph unicode="&#x161;" d="M235 1461l-205 -206v-423l200 -204h400v-298h-332v209h-268v-272l205 -205h457l205 205v421l-210 207h-389v298h332v-209h267v271l-205 206h-457zM704 1491l223 -224v-4l32 -32v-309h-257l225 -226l32 -32v-443l-221 -221h-479l-32 32h-4l-223 223v314h251l-251 251v447 l223 224h481zM360 360h240v206h-272l32 -35v-171zM360 925h275l-35 29v177h-240v-206zM670 2123l202 -261l-373 -282l-412 316l172 227l205 -156zM464 1930l-200 151l-135 -178l335 -254l335 254l-135 178z" />
<glyph unicode="&#x164;" horiz-adv-x="1027" d="M30 1461v-268h258v-1131h268v1131h259v268h-785zM845 1491l32 -38v-322h-259v-1131h-322l-38 32v1099h-220l-38 32v328h845zM629 2123l202 -261l-373 -282l-412 316l172 227l205 -156zM423 1930l-200 151l-135 -178l335 -254l335 254l-135 178z" />
<glyph unicode="&#x165;" horiz-adv-x="1027" d="M30 1461v-268h258v-1131h268v1131h259v268h-785zM845 1491l32 -38v-322h-259v-1131h-322l-38 32v1099h-220l-38 32v328h845zM629 2123l202 -261l-373 -282l-412 316l172 227l205 -156zM423 1930l-200 151l-135 -178l335 -254l335 254l-135 178z" />
<glyph unicode="&#x178;" horiz-adv-x="1259" d="M617 1642h267v268h-267v-268zM194 1642h267v268h-267v-268zM532 887l-223 574h-265l351 -900v-499h267v499l372 900h-265zM371 32h-6v523q-97 245 -182 466l-23 59l-23 59l-47 120q-53 135 -90 232h329l3 -8l30 -30l180 -463l207 501h330l-3 -6l33 -32l-385 -932v-521 h-321zM164 1940h327v-6l32 -32v-322h-321l-32 32h-6v328zM587 1940h327v-6l32 -32v-322h-321l-32 32h-6v328z" />
<glyph unicode="&#x179;" horiz-adv-x="1044" d="M30 1193h457l-450 -863l-7 -16v-252h802v268h-457l450 863l7 15v253h-802v-268zM0 1491h862l32 -38v-285l-11 -25l-409 -783h388l32 -38v-322h-856l-38 32v288l11 26l409 785h-382l-38 32v328zM252 1614l220 449h334l30 -38l-217 -443h-327zM567 1644l191 389h-267 l-191 -389h267z" />
<glyph unicode="&#x17a;" horiz-adv-x="1044" d="M30 1193h457l-450 -863l-7 -16v-252h802v268h-457l450 863l7 15v253h-802v-268zM0 1491h862l32 -38v-285l-11 -25l-409 -783h388l32 -38v-322h-856l-38 32v288l11 26l409 785h-382l-38 32v328zM252 1614l220 449h334l30 -38l-217 -443h-327zM567 1644l191 389h-267 l-191 -389h267z" />
<glyph unicode="&#x17b;" horiz-adv-x="1044" d="M30 1193h457l-450 -863l-7 -16v-252h802v268h-457l450 863l7 15v253h-802v-268zM0 1491h862l32 -38v-285l-11 -25l-409 -783h388l32 -38v-322h-856l-38 32v288l11 26l409 785h-382l-38 32v328zM297 1640h268v268h-268v-268zM267 1938h328l32 -38v-322h-322l-38 32v328z " />
<glyph unicode="&#x17c;" horiz-adv-x="1044" d="M30 1193h457l-450 -863l-7 -16v-252h802v268h-457l450 863l7 15v253h-802v-268zM0 1491h862l32 -38v-285l-11 -25l-409 -783h388l32 -38v-322h-856l-38 32v288l11 26l409 785h-382l-38 32v328zM297 1640h268v268h-268v-268zM267 1938h328l32 -38v-322h-322l-38 32v328z " />
<glyph unicode="&#x17d;" horiz-adv-x="1044" d="M30 1193h457l-450 -863l-7 -16v-252h802v268h-457l450 863l7 15v253h-802v-268zM0 1491h862l32 -38v-285l-11 -25l-409 -783h388l32 -38v-322h-856l-38 32v288l11 26l409 785h-382l-38 32v328zM638 2123l202 -261l-373 -282l-412 316l172 227l205 -156zM432 1930 l-200 151l-135 -178l335 -254l335 254l-135 178z" />
<glyph unicode="&#x17e;" horiz-adv-x="1044" d="M30 1193h457l-450 -863l-7 -16v-252h802v268h-457l450 863l7 15v253h-802v-268zM0 1491h862l32 -38v-285l-11 -25l-409 -783h388l32 -38v-322h-856l-38 32v288l11 26l409 785h-382l-38 32v328zM638 2123l202 -261l-373 -282l-412 316l172 227l205 -156zM432 1930 l-200 151l-135 -178l335 -254l335 254l-135 178z" />
<glyph unicode="&#x2c6;" horiz-adv-x="935" d="M171 1464l-171 227q358 269 377 285l375 -288l33 -33l-168 -222l-205 154l-205 -154q-35 31 -36 31zM577 1506l135 178l-335 254l-335 -254l135 -178l200 151z" />
<glyph unicode="&#x2c7;" horiz-adv-x="935" d="M583 1980l202 -261l-373 -282l-412 316l172 227l205 -156zM377 1787l-200 151l-135 -178l335 -254l335 254l-135 178z" />
<glyph unicode="&#x2d8;" horiz-adv-x="886" d="M430 1908v2q-1 -52 -32 -70q-10 -6 -26 -9h-5l-6 -1h-18q-4 1 -12 1q-15 3 -25 9q-31 18 -32 70h-244q0 -120 72 -212q90 -112 250 -112q161 0 249 112q73 91 73 210h-244zM704 1940l32 -40q0 -151 -79 -254q-101 -122 -270 -122q-152 0 -246 94l-4 4q-34 26 -58 57 q-79 100 -79 261h303l32 -38q0 -30 3 -41h5l5 -1h8q3 1 9 1h7q8 2 12 6q15 9 17 73h303z" />
<glyph unicode="&#x2d9;" horiz-adv-x="510" d="M30 1616h268v268h-268v-268zM0 1914h328l32 -38v-322h-322l-38 32v328z" />
<glyph unicode="&#x2da;" horiz-adv-x="636" d="M95 1588q-18 12 -29 25q-66 69 -66 160q0 92 66 161q67 67 161 67q95 0 160 -67l13 -15l13 -15l7 -7q66 -66 66 -159q0 -92 -66 -158q-64 -66 -158 -66q-93 0 -159 66zM262 1809q14 -15 14 -36q0 -20 -14 -35q-15 -14 -35 -14t-35 14q-14 15 -14 35q0 21 14 36 q15 14 35 14t35 -14zM366 1913q-57 58 -139 58t-140 -58q-57 -58 -57 -140q0 -80 57 -139q58 -58 140 -58t139 58q58 58 58 139q0 82 -58 140z" />
<glyph unicode="&#x2db;" horiz-adv-x="599" d="M35 -135q-5 -74 51 -122q27 -27 75 -46q52 -23 139 -8l1 151q-46 -22 -73 13t43 96q53 46 92 70l-153 91q-43 -37 -75 -72q-97 -104 -100 -173zM207 147l214 -127l-2 -1l-3 -2l33 -32q-69 -44 -125 -91l-12 -10l-5 -5l-5 -5l6 3l7 4l16 7v-8l32 -32l-1 -217 q-56 -10 -90 -10q-49 0 -87 16l-1 1q-50 19 -81 50l-5 5l-5 5l-2 2q-13 9 -25 21q-66 57 -61 145q3 80 108 192q32 35 94 89z" />
<glyph unicode="&#x2dc;" horiz-adv-x="1007" d="M594 1738q4 -76 -206 30q-38 13 -71 21q-80 19 -144 -2q-67 -22 -105 -84q-32 -53 -37 -127l190 -39q-3 25 14 43q18 19 192 -50q174 -67 256 -15q82 54 108 185zM826 1724l31 -37q-33 -171 -125 -230q-42 -27 -103 -27q-72 0 -177 40q-144 55 -162 57q-9 -12 -3 -58 l-249 51l-38 32q8 109 42 167q44 71 121 97q36 12 82 12q39 0 79 -10q45 -10 71 -20q124 -62 165 -62q4 0 2 39z" />
<glyph unicode="&#x2dd;" horiz-adv-x="1045" d="M675 1616l150 556h-267l-150 -556h267zM306 1616l150 556h-267l-150 -556h267zM7 1586h-7l166 616h329l-2 -6l32 -31l10 37h329l-2 -6l33 -32l-164 -610h-323l-32 32h-6l-8 -32h-323z" />
<glyph unicode="&#x2000;" horiz-adv-x="1101" />
<glyph unicode="&#x2001;" horiz-adv-x="2202" />
<glyph unicode="&#x2002;" horiz-adv-x="1101" />
<glyph unicode="&#x2003;" horiz-adv-x="2202" />
<glyph unicode="&#x2004;" horiz-adv-x="734" />
<glyph unicode="&#x2005;" horiz-adv-x="550" />
<glyph unicode="&#x2006;" horiz-adv-x="367" />
<glyph unicode="&#x2007;" horiz-adv-x="367" />
<glyph unicode="&#x2008;" horiz-adv-x="275" />
<glyph unicode="&#x2009;" horiz-adv-x="440" />
<glyph unicode="&#x200a;" horiz-adv-x="122" />
<glyph unicode="&#x2010;" horiz-adv-x="913" d="M30 864h671v-268h-671v268zM0 566h6l32 -32h725v322l-32 32v6h-731v-328z" />
<glyph unicode="&#x2011;" horiz-adv-x="913" d="M30 864h671v-268h-671v268zM0 566h6l32 -32h725v322l-32 32v6h-731v-328z" />
<glyph unicode="&#x2012;" horiz-adv-x="913" d="M30 864h671v-268h-671v268zM0 566h6l32 -32h725v322l-32 32v6h-731v-328z" />
<glyph unicode="&#x2013;" horiz-adv-x="150" />
<glyph unicode="&#x2014;" horiz-adv-x="150" />
<glyph unicode="&#x2018;" horiz-adv-x="510" d="M298 1322h-126l61 140h-142l-60 -140h-1v-268h268v268zM328 1346l32 -32v-322h-322l-32 32h-6l1 305l70 163h209l-3 -6l33 -32l-46 -102h64v-6z" />
<glyph unicode="&#x2019;" horiz-adv-x="510" d="M30 1193h125l-60 -140h141l61 140h1v268h-268v-268zM0 1491h328v-6l32 -32l-1 -301l-70 -161h-201l-32 32h-8l47 108h-57l-32 32h-6v328z" />
<glyph unicode="&#x201a;" horiz-adv-x="510" d="M30 59h125l-60 -140h141l61 140h1v268h-268v-268zM0 357h328l32 -38l-1 -301l-70 -161h-201l-40 32l47 108h-57l-38 32v328z" />
<glyph unicode="&#x201c;" horiz-adv-x="849" d="M298 1321h-126l61 140h-142l-60 -140h-1v-268h268v268zM637 1321h-126l61 140h-142l-60 -140h-1v-268h268v268zM667 1345l32 -32v-322h-322l-17 17v-17h-322l-32 32h-6l1 305l70 163h209l-3 -6l33 -32l-46 -102h64v-6l13 -14l69 160h209l-3 -6l33 -32l-46 -102h64v-6z " />
<glyph unicode="&#x201d;" horiz-adv-x="849" d="M369 1194h125l-60 -140h141l61 140h1v268h-268v-268zM30 1194h125l-60 -140h141l61 140h1v268h-268v-268zM0 1492h328v-6l11 -11v17h328v-6l32 -32l-1 -301l-70 -161h-201l-32 32h-8l47 108h-57l-19 19l-69 -159h-201l-32 32h-8l47 108h-57l-32 32h-6v328z" />
<glyph unicode="&#x201e;" horiz-adv-x="880" d="M30 59h125l-60 -140h141l61 140h1v268h-268v-268zM0 357h328v-6l32 -32l-1 -301l-70 -161h-201l-32 32h-8l47 108h-57l-32 32h-6v328zM400 59h125l-60 -140h141l61 140h1v268h-268v-268zM370 357h328v-6l32 -32l-1 -301l-70 -161h-201l-32 32h-8l47 108h-57l-32 32h-6 v328z" />
<glyph unicode="&#x2020;" horiz-adv-x="150" />
<glyph unicode="&#x2021;" horiz-adv-x="150" />
<glyph unicode="&#x2022;" horiz-adv-x="150" />
<glyph unicode="&#x2026;" horiz-adv-x="150" />
<glyph unicode="&#x202f;" horiz-adv-x="440" />
<glyph unicode="&#x2039;" horiz-adv-x="150" />
<glyph unicode="&#x203a;" horiz-adv-x="150" />
<glyph unicode="&#x2044;" horiz-adv-x="150" />
<glyph unicode="&#x205f;" horiz-adv-x="550" />
<glyph unicode="&#x20a3;" horiz-adv-x="150" />
<glyph unicode="&#x20a4;" horiz-adv-x="150" />
<glyph unicode="&#x20a7;" horiz-adv-x="150" />
<glyph unicode="&#x20ac;" horiz-adv-x="1129" d="M30 973v-147h109v-133h-109v-147h109v-279l205 -205h573v268h-510v216h330v147h-330v133h330v147h-330v220h510v268h-573l-205 -206v-282h-109zM109 1003v264l223 224h615v-6l32 -32v-322h-510v-128h298v-6l32 -32v-201h-330v-41h298v-6l32 -32v-201h-330v-124h478v-6 l32 -32v-322h-611l-32 32h-4l-223 223v229h-71l-32 32h-6v207h109v41h-71l-32 32h-6v207h109z" />
<glyph unicode="&#x2122;" horiz-adv-x="150" />
<glyph unicode="&#x2202;" horiz-adv-x="150" />
<glyph unicode="&#x2206;" horiz-adv-x="150" />
<glyph unicode="&#x220f;" horiz-adv-x="150" />
<glyph unicode="&#x2211;" horiz-adv-x="150" />
<glyph unicode="&#x221a;" horiz-adv-x="150" />
<glyph unicode="&#x221e;" horiz-adv-x="150" />
<glyph unicode="&#x222b;" horiz-adv-x="150" />
<glyph unicode="&#x2248;" horiz-adv-x="150" />
<glyph unicode="&#x2264;" horiz-adv-x="150" />
<glyph unicode="&#x2265;" horiz-adv-x="150" />
<glyph unicode="&#x25fc;" horiz-adv-x="1490" d="M0 1490h1490v-1490h-1490v1490z" />
</font>
</defs>
</svg>
